# xmcd CD database file
#
# Track frame offsets:
#	183
#	23483
#	51833
#	81333
#	115808
#	167008
#	196983
#	231133
#	276033
#
# Disc length: 3969 seconds
#
# Revision: 0
# Processed by: cddbd v1.5.2PL0 Copyright (c) Steve Scherf et al.
# Submitted via: CDex 1.51
#
DISCID=6d0f7f09
DTITLE=Arigret - Se una Notte d'Inverno un Viaggiatore...
DYEAR=1995
DGENRE=Jazz
TTITLE0=Giorgio nella triste società
TTITLE1=Musicanti s.p.a.
TTITLE2=Ornette
TTITLE3=Polidod
TTITLE4=Il Viaggiatore di III classe
TTITLE5=Rhovyk
TTITLE6=Sotto la protezione del cav. Gerolamo
TTITLE7=La credenza di Faenza
TTITLE8=Il Dottor Zipp
EXTD=YEAR: 1995
EXTT0=
EXTT1=
EXTT2=
EXTT3=
EXTT4=
EXTT5=
EXTT6=
EXTT7=
EXTT8=
PLAYORDER=
